<?xml version="1.0" encoding="utf-8"?>
<!-- Generator: Fusion 360, Shaper Origin Export Add-In, Version 1.5.0  -->
<svg enable-background="new 0 0 30.9072177 7" height="7cm" shaper:fusionaddin="version:1.5.0" version="1.1" viewBox="0 0 30.9072177 7" width="30.9072177cm" x="0cm" xml:space="preserve" xmlns="http://www.w3.org/2000/svg" xmlns:shaper="http://www.shapertools.com/namespaces/shaper" xmlns:xlink="http://www.w3.org/1999/xlink" y="0cm"><path d="M11,7 L0,7 0,6.95 A1.15,1.15 0 0,0 -1.15,5.8 L-6.75,5.8 A1.15,1.15 270 0,0 -7.9,6.95 L-7.9,7 -8.573223,7 A0.5,0.5 90 0,1 -9.0538538,6.6378187 L-9.9536089,3.5 -9.0538538,0.3621813 A0.5,0.5 196 0,1 -8.573223,0 L-7.9,0 -7.9,0.05 A1.15,1.15 180 0,0 -6.75,1.2 L-1.15,1.2 A1.15,1.15 90 0,0 0,0.05 L0,0 11,0 11,0.05 A1.15,1.15 180 0,0 12.15,1.2 L17.75,1.2 A1.15,1.15 90 0,0 18.9,0.05 L18.9,-0 19.573223,-0 A0.5,0.5 270 0,1 20.0538538,0.3621813 L20.9536089,3.5 20.0538538,6.6378187 A0.5,0.5 16 0,1 19.573223,7 L18.9,7 18.9,6.95 A1.15,1.15 0 0,0 17.75,5.8 L12.15,5.8 A1.15,1.15 270 0,0 11,6.95 L11,7z" fill="rgb(0,0,0)" shaper:cutDepth="0.0015" shaper:pathType="exterior" transform="matrix(1,0,0,-1,9.9536089,7)" vector-effect="non-scaling-stroke" /><path d="M12.725,3.5 a0.175,0.175 0 1,1 0.35,0 a0.175,0.175 0 1,1 -0.35,0z" fill="rgb(255,255,255)" shaper:cutDepth="0.0015" shaper:pathType="interior" stroke="rgb(0,0,0)" transform="matrix(1,0,0,-1,9.9536089,7)" vector-effect="non-scaling-stroke" /><path d="M-2.075,3.5 a0.175,0.175 0 1,1 0.35,0 a0.175,0.175 0 1,1 -0.35,0z" fill="rgb(255,255,255)" shaper:cutDepth="0.0015" shaper:pathType="interior" stroke="rgb(0,0,0)" transform="matrix(1,0,0,-1,9.9536089,7)" vector-effect="non-scaling-stroke" /><path d="M10.325,0.5 a0.175,0.175 0 1,1 0.35,0 a0.175,0.175 0 1,1 -0.35,0z" fill="rgb(255,255,255)" shaper:cutDepth="0.0015" shaper:pathType="interior" stroke="rgb(0,0,0)" transform="matrix(1,0,0,-1,9.9536089,7)" vector-effect="non-scaling-stroke" /><path d="M0.325,6.5 a0.175,0.175 0 1,1 0.35,0 a0.175,0.175 0 1,1 -0.35,0z" fill="rgb(255,255,255)" shaper:cutDepth="0.0015" shaper:pathType="interior" stroke="rgb(0,0,0)" transform="matrix(1,0,0,-1,9.9536089,7)" vector-effect="non-scaling-stroke" /><path d="M0.325,0.5 a0.175,0.175 0 1,1 0.35,0 a0.175,0.175 0 1,1 -0.35,0z" fill="rgb(255,255,255)" shaper:cutDepth="0.0015" shaper:pathType="interior" stroke="rgb(0,0,0)" transform="matrix(1,0,0,-1,9.9536089,7)" vector-effect="non-scaling-stroke" /><path d="M10.325,6.5 a0.175,0.175 0 1,1 0.35,0 a0.175,0.175 0 1,1 -0.35,0z" fill="rgb(255,255,255)" shaper:cutDepth="0.0015" shaper:pathType="interior" stroke="rgb(0,0,0)" transform="matrix(1,0,0,-1,9.9536089,7)" vector-effect="non-scaling-stroke" /><path d="M-6.575,3.5 a0.175,0.175 0 1,1 0.35,0 a0.175,0.175 0 1,1 -0.35,0z" fill="rgb(255,255,255)" shaper:cutDepth="0.0015" shaper:pathType="interior" stroke="rgb(0,0,0)" transform="matrix(1,0,0,-1,9.9536089,7)" vector-effect="non-scaling-stroke" /><path d="M-8.7704029,0.475 a0.175,0.175 0 1,1 0.35,0 a0.175,0.175 0 1,1 -0.35,0z" fill="rgb(255,255,255)" shaper:cutDepth="0.0015" shaper:pathType="interior" stroke="rgb(0,0,0)" transform="matrix(1,0,0,-1,9.9536089,7)" vector-effect="non-scaling-stroke" /><path d="M-8.7704029,6.525 a0.175,0.175 0 1,1 0.35,0 a0.175,0.175 0 1,1 -0.35,0z" fill="rgb(255,255,255)" shaper:cutDepth="0.0015" shaper:pathType="interior" stroke="rgb(0,0,0)" transform="matrix(1,0,0,-1,9.9536089,7)" vector-effect="non-scaling-stroke" /><path d="M17.225,3.5 a0.175,0.175 0 1,1 0.35,0 a0.175,0.175 0 1,1 -0.35,0z" fill="rgb(255,255,255)" shaper:cutDepth="0.0015" shaper:pathType="interior" stroke="rgb(0,0,0)" transform="matrix(1,0,0,-1,9.9536089,7)" vector-effect="non-scaling-stroke" /><path d="M19.4204029,6.525 a0.175,0.175 0 1,1 0.35,0 a0.175,0.175 0 1,1 -0.35,0z" fill="rgb(255,255,255)" shaper:cutDepth="0.0015" shaper:pathType="interior" stroke="rgb(0,0,0)" transform="matrix(1,0,0,-1,9.9536089,7)" vector-effect="non-scaling-stroke" /><path d="M19.4204029,0.475 a0.175,0.175 0 1,1 0.35,0 a0.175,0.175 0 1,1 -0.35,0z" fill="rgb(255,255,255)" shaper:cutDepth="0.0015" shaper:pathType="interior" stroke="rgb(0,0,0)" transform="matrix(1,0,0,-1,9.9536089,7)" vector-effect="non-scaling-stroke" /></svg>