<?xml version="1.0" encoding="utf-8"?>
<!-- Generator: Fusion 360, Shaper Origin Export Add-In, Version 1.5.0  -->
<svg enable-background="new 0 0 29 7" height="7cm" shaper:fusionaddin="version:1.5.0" version="1.1" viewBox="0 0 29 7" width="29cm" x="0cm" xml:space="preserve" xmlns="http://www.w3.org/2000/svg" xmlns:shaper="http://www.shapertools.com/namespaces/shaper" xmlns:xlink="http://www.w3.org/1999/xlink" y="0cm"><path d="M11,-0 A0.7,0.7 180 0,0 11.7,0.7 L19.1971129,0.7 20,3.5 19.1971129,6.3 11.7,6.3 A0.7,0.7 270 0,0 11,7 L0,7 A0.7,0.7 0 0,0 -0.7,6.3 L-8.1971129,6.3 -9,3.5 -8.1971129,0.7 -0.7,0.7 A0.7,0.7 90 0,0 -0,0 L11,-0z" fill="rgb(0,0,0)" shaper:cutDepth="0.0015" shaper:pathType="exterior" transform="matrix(1,0,0,-1,9,7)" vector-effect="non-scaling-stroke" /><path d="M8.1149908,3.31 a0.15,0.15 0 1,1 0.3,0 a0.15,0.15 0 1,1 -0.3,0z" fill="rgb(255,255,255)" shaper:cutDepth="0.0015" shaper:pathType="interior" stroke="rgb(0,0,0)" transform="matrix(1,0,0,-1,9,7)" vector-effect="non-scaling-stroke" /><path d="M-1.860009,5.25 a0.15,0.15 0 1,1 0.3,0 a0.15,0.15 0 1,1 -0.3,0z" fill="rgb(255,255,255)" shaper:cutDepth="0.0015" shaper:pathType="interior" stroke="rgb(0,0,0)" transform="matrix(1,0,0,-1,9,7)" vector-effect="non-scaling-stroke" /><path d="M-7.3600089,5.25 a0.15,0.15 0 1,1 0.3,0 a0.15,0.15 0 1,1 -0.3,0z" fill="rgb(255,255,255)" shaper:cutDepth="0.0015" shaper:pathType="interior" stroke="rgb(0,0,0)" transform="matrix(1,0,0,-1,9,7)" vector-effect="non-scaling-stroke" /><path d="M2.5149909,1.41 a0.15,0.15 0 1,1 0.3,0 a0.15,0.15 0 1,1 -0.3,0z" fill="rgb(255,255,255)" shaper:cutDepth="0.0015" shaper:pathType="interior" stroke="rgb(0,0,0)" transform="matrix(1,0,0,-1,9,7)" vector-effect="non-scaling-stroke" /><path d="M15.7649704,2.7002174 a0.15,0.15 0 1,1 0.3,0 a0.15,0.15 0 1,1 -0.3,0z" fill="rgb(255,255,255)" shaper:cutDepth="0.0015" shaper:pathType="interior" stroke="rgb(0,0,0)" transform="matrix(1,0,0,-1,9,7)" vector-effect="non-scaling-stroke" /><path d="M8.1149908,1.41 a0.15,0.15 0 1,1 0.3,0 a0.15,0.15 0 1,1 -0.3,0z" fill="rgb(255,255,255)" shaper:cutDepth="0.0015" shaper:pathType="interior" stroke="rgb(0,0,0)" transform="matrix(1,0,0,-1,9,7)" vector-effect="non-scaling-stroke" /><path d="M-1.860009,1.75 a0.15,0.15 0 1,1 0.3,0 a0.15,0.15 0 1,1 -0.3,0z" fill="rgb(255,255,255)" shaper:cutDepth="0.0015" shaper:pathType="interior" stroke="rgb(0,0,0)" transform="matrix(1,0,0,-1,9,7)" vector-effect="non-scaling-stroke" /><path d="M-7.3600089,1.75 a0.15,0.15 0 1,1 0.3,0 a0.15,0.15 0 1,1 -0.3,0z" fill="rgb(255,255,255)" shaper:cutDepth="0.0015" shaper:pathType="interior" stroke="rgb(0,0,0)" transform="matrix(1,0,0,-1,9,7)" vector-effect="non-scaling-stroke" /><path d="M2.5149909,3.31 a0.15,0.15 0 1,1 0.3,0 a0.15,0.15 0 1,1 -0.3,0z" fill="rgb(255,255,255)" shaper:cutDepth="0.0015" shaper:pathType="interior" stroke="rgb(0,0,0)" transform="matrix(1,0,0,-1,9,7)" vector-effect="non-scaling-stroke" /><path d="M15.7648793,4.300134 a0.15,0.15 0 1,1 0.3,0 a0.15,0.15 0 1,1 -0.3,0z" fill="rgb(255,255,255)" shaper:cutDepth="0.0015" shaper:pathType="interior" stroke="rgb(0,0,0)" transform="matrix(1,0,0,-1,9,7)" vector-effect="non-scaling-stroke" /><path d="M10.325,0.5 a0.175,0.175 0 1,1 0.35,0 a0.175,0.175 0 1,1 -0.35,0z" fill="rgb(255,255,255)" shaper:cutDepth="0.0015" shaper:pathType="interior" stroke="rgb(0,0,0)" transform="matrix(1,0,0,-1,9,7)" vector-effect="non-scaling-stroke" /><path d="M0.325,6.5 a0.175,0.175 0 1,1 0.35,0 a0.175,0.175 0 1,1 -0.35,0z" fill="rgb(255,255,255)" shaper:cutDepth="0.0015" shaper:pathType="interior" stroke="rgb(0,0,0)" transform="matrix(1,0,0,-1,9,7)" vector-effect="non-scaling-stroke" /><path d="M0.325,0.5 a0.175,0.175 0 1,1 0.35,0 a0.175,0.175 0 1,1 -0.35,0z" fill="rgb(255,255,255)" shaper:cutDepth="0.0015" shaper:pathType="interior" stroke="rgb(0,0,0)" transform="matrix(1,0,0,-1,9,7)" vector-effect="non-scaling-stroke" /><path d="M10.325,6.5 a0.175,0.175 0 1,1 0.35,0 a0.175,0.175 0 1,1 -0.35,0z" fill="rgb(255,255,255)" shaper:cutDepth="0.0015" shaper:pathType="interior" stroke="rgb(0,0,0)" transform="matrix(1,0,0,-1,9,7)" vector-effect="non-scaling-stroke" /><path d="M-8.375,1.8 a0.175,0.175 0 1,1 0.35,0 a0.175,0.175 0 1,1 -0.35,0z" fill="rgb(255,255,255)" shaper:cutDepth="0.0015" shaper:pathType="interior" stroke="rgb(0,0,0)" transform="matrix(1,0,0,-1,9,7)" vector-effect="non-scaling-stroke" /><path d="M-8.375,5.2 a0.175,0.175 0 1,1 0.35,0 a0.175,0.175 0 1,1 -0.35,0z" fill="rgb(255,255,255)" shaper:cutDepth="0.0015" shaper:pathType="interior" stroke="rgb(0,0,0)" transform="matrix(1,0,0,-1,9,7)" vector-effect="non-scaling-stroke" /><path d="M19.025,5.2 a0.175,0.175 0 1,1 0.35,0 a0.175,0.175 0 1,1 -0.35,0z" fill="rgb(255,255,255)" shaper:cutDepth="0.0015" shaper:pathType="interior" stroke="rgb(0,0,0)" transform="matrix(1,0,0,-1,9,7)" vector-effect="non-scaling-stroke" /><path d="M19.025,1.8 a0.175,0.175 0 1,1 0.35,0 a0.175,0.175 0 1,1 -0.35,0z" fill="rgb(255,255,255)" shaper:cutDepth="0.0015" shaper:pathType="interior" stroke="rgb(0,0,0)" transform="matrix(1,0,0,-1,9,7)" vector-effect="non-scaling-stroke" /></svg>